# xmcd
#
# Track frame offsets: 
#        150
#        13985
#        24243
#        31161
#        40568
#        52818
#        62369
#        74721
#        81227
#        91005
#        98276
#        104015
#        111547
#        119164
#        129185
#        138710
#        150389
#        162784
#        175167
#        189298
#        202297
#        214115
#
# Disc length: 2984 seconds
#
# Revision: 0
# Processed by: cddbd v1.5.2PL0 Copyright (c) Steve Scherf et al.
# Submitted via: ExactAudioCopy v0.99pb4
#
DISCID=270ba616
DTITLE=Alexander Vinitsky - Only Blues
DYEAR=2006
DGENRE=Blues
TTITLE0=Blues in A
TTITLE1=Blues in Gm
TTITLE2=Blues in B
TTITLE3=Blues in E
TTITLE4=Blues in F
TTITLE5=Blues in Fm
TTITLE6=Blues in G
TTITLE7=Blues in A
TTITLE8=Blues in D
TTITLE9=Blues in F
TTITLE10=Blues in C
TTITLE11=Blues in Dm
TTITLE12=Blues in E
TTITLE13=Blues in Cm
TTITLE14=Blues in D
TTITLE15=Blues in Am
TTITLE16=Blues in B
TTITLE17=Blues in F
TTITLE18=Blues in E
TTITLE19=Blues in Bb
TTITLE20=Blues in C
TTITLE21=Blues in G
EXTD=
EXTT0=
EXTT1=
EXTT2=
EXTT3=
EXTT4=
EXTT5=
EXTT6=
EXTT7=
EXTT8=
EXTT9=
EXTT10=
EXTT11=
EXTT12=
EXTT13=
EXTT14=
EXTT15=
EXTT16=
EXTT17=
EXTT18=
EXTT19=
EXTT20=
EXTT21=
PLAYORDER=
